<svg width="154" height="135" viewBox="0 0 154 135" fill="none" xmlns="http://www.w3.org/2000/svg">
<path d="M77.1393 0C78.1831 13.9916 77.1393 46.7962 48.6746 65.2311V128.477L60.3452 135H125.529C129.799 135 138.338 131.994 138.338 119.968C138.338 118.834 138.623 116.395 139.762 115.714C141.47 115.053 144.999 112.935 145.455 109.758C145.834 107.111 146.309 101.363 145.17 99.5483C144.696 98.792 144.259 96.8256 146.309 95.0105C148.301 93.687 152.4 90.1323 152.855 86.5021C152.95 85.1786 152.514 81.7374 150.009 78.5609C149.345 77.7101 148.358 75.5546 149.724 73.7395C151.148 72.2269 153.994 68.0672 153.994 63.5294C154.089 61.9223 153.083 57.8571 148.301 54.4538C145.17 52.1849 131.735 48.2143 103.042 50.4832C100.386 50.9559 95.4137 51.0504 96.78 47.6471C97.5391 45.1891 99.0572 38.1176 99.0572 29.4958C100.101 19.6639 97.1785 0 77.1393 0Z" fill="#929292"/>
<path d="M0 66.3655C0 63.5461 2.29393 61.2605 5.12365 61.2605H39.2813C42.111 61.2605 44.4049 63.5461 44.4049 66.3655V129.895C44.4049 132.714 42.111 135 39.2813 135H5.12365C2.29394 135 0 132.714 0 129.895V66.3655Z" fill="#929292"/>
</svg>
