<svg width="154" height="135" viewBox="0 0 154 135" fill="none" xmlns="http://www.w3.org/2000/svg">
<path d="M52.1746 67.1017C78.3306 49.081 81.315 19.4264 80.8404 3.77982C83.4521 4.1974 85.5538 5.05453 87.2587 6.16156C89.7203 7.75994 91.5507 10.0077 92.8805 12.6394C95.5897 18.0009 96.0526 24.6439 95.5767 29.1263L95.5572 29.3105V29.4958C95.5572 37.634 94.1386 44.2721 93.4687 46.5064C92.9052 48.0134 92.7745 49.8903 93.9174 51.5652C94.9523 53.0819 96.5429 53.6675 97.5727 53.9189C99.6019 54.4141 101.971 54.2122 103.478 53.9597C117.548 52.8564 127.774 53.2862 134.788 54.2352C138.309 54.7117 140.989 55.3146 142.921 55.9046C144.922 56.5155 145.923 57.0527 146.247 57.2879L146.26 57.2967L146.272 57.3053C148.208 58.6836 149.28 60.1196 149.858 61.2547C150.151 61.8293 150.32 62.3307 150.41 62.7151C150.506 63.1202 150.5 63.3297 150.5 63.3231L150.494 63.4262V63.5294C150.494 65.0908 149.995 66.7242 149.256 68.2157C148.518 69.7077 147.647 70.84 147.175 71.3411L147.044 71.481L146.928 71.6346C145.526 73.4967 145.371 75.5435 145.662 77.1393C145.937 78.6494 146.625 79.9134 147.25 80.7146L147.255 80.7214L147.261 80.7282C149.086 83.0427 149.379 85.4777 149.368 86.1655C149.236 86.9344 148.652 88.0383 147.534 89.3054C146.43 90.5569 145.146 91.5808 144.372 92.0951L144.17 92.2294L143.988 92.3904C140.554 95.4317 140.925 99.2653 142.146 101.311C142.151 101.339 142.218 101.535 142.278 101.993C142.358 102.603 142.393 103.393 142.382 104.3C142.36 106.108 142.164 108.05 141.99 109.262C141.928 109.692 141.603 110.319 140.772 111.046C139.966 111.752 139.021 112.248 138.497 112.451L138.22 112.558L137.966 112.71C136.959 113.312 136.348 114.167 135.987 114.829C135.616 115.509 135.383 116.212 135.232 116.806C134.931 117.985 134.838 119.178 134.838 119.968C134.838 125.058 133.079 127.797 131.276 129.32C129.339 130.957 126.978 131.5 125.529 131.5H61.257L52.1746 126.424V67.1017ZM5.12365 64.7605H39.2813C40.19 64.7605 40.9049 65.4911 40.9049 66.3655V129.895C40.9049 130.769 40.19 131.5 39.2813 131.5H5.12365C4.21492 131.5 3.5 130.769 3.5 129.895V66.3655C3.5 65.4911 4.21492 64.7605 5.12365 64.7605Z" stroke="#929292" stroke-width="7"/>
</svg>
